<?xml version="1.0" encoding="UTF-8" standalone="no"?>
<svg
   xmlns:dc="http://purl.org/dc/elements/1.1/"
   xmlns:cc="http://creativecommons.org/ns#"
   xmlns:rdf="http://www.w3.org/1999/02/22-rdf-syntax-ns#"
   xmlns:svg="http://www.w3.org/2000/svg"
   xmlns="http://www.w3.org/2000/svg"
   xmlns:sodipodi="http://sodipodi.sourceforge.net/DTD/sodipodi-0.dtd"
   xmlns:inkscape="http://www.inkscape.org/namespaces/inkscape"
   version="1.1"
   x="0px"
   y="0px"
   viewBox="0 0 1244.58 568.53003"
   xml:space="preserve"
   id="svg843"
   sodipodi:docname="fugro-logo.svg"
   width="1244.58"
   height="568.53003"
   inkscape:version="0.92.4 (5da689c313, 2019-01-14)"><metadata
   id="metadata849"><rdf:RDF><cc:Work
       rdf:about=""><dc:format>image/svg+xml</dc:format><dc:type
         rdf:resource="http://purl.org/dc/dcmitype/StillImage" /><dc:title></dc:title></cc:Work></rdf:RDF></metadata><defs
   id="defs847" /><sodipodi:namedview
   pagecolor="#ffffff"
   bordercolor="#666666"
   borderopacity="1"
   objecttolerance="10"
   gridtolerance="10"
   guidetolerance="10"
   inkscape:pageopacity="0"
   inkscape:pageshadow="2"
   inkscape:window-width="1920"
   inkscape:window-height="1017"
   id="namedview845"
   showgrid="false"
   fit-margin-top="10"
   fit-margin-left="10"
   fit-margin-right="10"
   fit-margin-bottom="10"
   inkscape:zoom="0.6232407"
   inkscape:cx="883.61894"
   inkscape:cy="266.12491"
   inkscape:window-x="-8"
   inkscape:window-y="-8"
   inkscape:window-maximized="1"
   inkscape:current-layer="svg843" />
<g
   id="g841"
   transform="translate(-57.43,-377.91)">
	<path
   d="m 622.5,630.22 c -13.26,0 -27.23,-13.38 -27.23,-27.22 v -99.55 c 0,-13.86 13.97,-27.22 27.23,-27.22 h 148.7 c 13.26,0 27.21,13.37 27.21,27.22 v 22.12 h -79.88 c 0,0 0,-14.17 -21.69,-14.17 -21.68,0 -22.12,15.93 -22.12,15.93 v 54.87 c 0,0 0.22,17.71 22.35,17.71 22.13,0 22.35,-19.48 22.35,-19.48 V 569.6 h -21.46 v -26.55 h 101.13 v 87.18 h -73.25 l -7.52,-12.84 c 0,0 -7.99,12.84 -20.37,12.84 H 622.5 Z"
   id="path833"
   inkscape:connector-curvature="0"
   style="fill:#041e41" />
	<path
   d="m 833.13,630.21 v -154 h 194.71 c 0,0 30.53,2.66 30.53,28.77 v 36.73 c 0,26.1 -30.53,28.77 -30.53,28.77 h -15.5 l 48.69,59.74 H 961.45 L 915.2,576.9 v 53.32 h -82.07 z m 119.26,-79.88 c 0,0 15.94,-1.99 15.94,-21.25 0,-19.25 -15.94,-21.23 -15.94,-21.23 H 915.2 v 42.48 z"
   id="path835"
   inkscape:connector-curvature="0"
   style="fill:#041e41" />
	<path
   d="m 1292.01,602.32 c 0,13.86 -13.94,27.21 -27.2,27.21 l -6.86,0.67 h -139.62 c -13.29,0 -27.23,-13.37 -27.23,-27.22 v -99.56 c 0,-13.84 13.94,-27.21 27.23,-27.21 h 146.26 c 13.27,0 27.42,13.38 27.42,27.21 z m -77.25,-73.18 c 0,0 -0.41,-19.3 -22.07,-19.3 -21.7,0 -22.13,20.8 -22.13,20.8 v 51.55 c 0,0 0.21,17.71 22.34,17.71 22.13,0 21.92,-19.48 21.92,-19.48 z"
   id="path837"
   inkscape:connector-curvature="0"
   style="fill:#041e41" />
	<path
   d="M 246.56,387.91 H 435.3 v 47.14 H 309.83 c -4.42,0 -9.06,4.21 -9.06,9.08 v 32.07 h 136.51 v 102.46 c 0,0 0.89,21.46 20.36,21.46 19.48,0 20.36,-21.46 20.36,-21.46 V 476.2 h 79.65 l -0.23,126.58 c 0,13.85 -13.95,27.43 -27.22,27.43 H 382.86 c -13.26,0 -27.22,-13.37 -27.22,-27.21 V 511.4 H 301.2 v 355.79 l -40.93,69.25 -40.71,-69.25 V 511.39 H 67.43 v -35.17 h 151.9 v -61.08 c 0,-13.86 12.64,-27.23 25.89,-27.23"
   id="path839"
   inkscape:connector-curvature="0"
   style="fill:#041e41" />
</g>
</svg>